<svg xmlns="http://www.w3.org/2000/svg" xmlns:xlink="http://www.w3.org/1999/xlink" width="377" zoomAndPan="magnify" viewBox="0 0 282.96 283.499996" height="377" preserveAspectRatio="xMidYMid meet" version="1.0"><defs><clipPath id="id1"><path d="M 0.964844 0.734375 L 282.691406 0.734375 L 282.691406 282.488281 L 0.964844 282.488281 Z M 0.964844 0.734375 " clip-rule="nonzero"/></clipPath></defs><g clip-path="url(#id1)"><path fill="#ffffff" d="M 249.699219 0.734375 L 33.984375 0.734375 C 15.777344 0.734375 0.964844 15.546875 0.964844 33.753906 L 0.964844 249.472656 C 0.964844 267.679688 15.777344 282.488281 33.984375 282.488281 L 249.699219 282.488281 C 267.90625 282.488281 282.71875 267.679688 282.71875 249.472656 L 282.71875 33.753906 C 282.71875 15.546875 267.90625 0.734375 249.699219 0.734375 Z M 260.707031 249.472656 C 260.707031 255.539062 255.769531 260.476562 249.699219 260.476562 L 184.765625 260.476562 L 184.765625 180.132812 L 220 180.132812 L 224.105469 146.015625 L 184.765625 146.015625 L 184.765625 109.144531 C 184.765625 99.734375 191.863281 92.636719 201.273438 92.636719 L 226.039062 92.636719 L 226.039062 60.71875 C 219.519531 59.796875 206.945312 58.515625 201.273438 58.515625 C 188.4375 58.515625 175.574219 63.933594 165.976562 73.371094 C 156.089844 83.097656 150.648438 95.835938 150.648438 109.242188 L 150.648438 146.015625 L 114.878906 146.015625 L 114.878906 180.132812 L 150.648438 180.132812 L 150.648438 260.476562 L 33.984375 260.476562 C 27.914062 260.476562 22.976562 255.539062 22.976562 249.472656 L 22.976562 33.753906 C 22.976562 27.683594 27.914062 22.746094 33.984375 22.746094 L 249.699219 22.746094 C 255.769531 22.746094 260.707031 27.683594 260.707031 33.753906 Z M 260.707031 249.472656 " fill-opacity="1" fill-rule="nonzero"/></g></svg>