<svg xmlns="http://www.w3.org/2000/svg" xmlns:xlink="http://www.w3.org/1999/xlink" width="500" zoomAndPan="magnify" viewBox="0 0 375 374.999991" height="500" preserveAspectRatio="xMidYMid meet" version="1.0"><defs><clipPath id="id1"><path d="M 12 12.324219 L 362 12.324219 L 362 361 L 12 361 Z M 12 12.324219 " clip-rule="nonzero"/></clipPath><clipPath id="id2"><path d="M 252.03125 213.558594 L 337.53125 213.558594 L 337.53125 299.058594 L 252.03125 299.058594 Z M 252.03125 213.558594 " clip-rule="nonzero"/></clipPath></defs><g clip-path="url(#id1)"><path fill="#ffffff" d="M 274.640625 12.089844 C 271.859375 12.0625 269.105469 12.234375 266.292969 12.554688 C 249.398438 14.496094 232.15625 21.886719 217.375 36.671875 C 201.695312 52.351562 183.351562 77.976562 173.558594 105.777344 C 170.628906 114.09375 168.71875 122.675781 167.761719 131.285156 L 167.066406 131.285156 C 167.066406 131.285156 163.847656 150.792969 158.023438 173.023438 C 152.199219 195.257812 142.867188 220.417969 134.375 228.910156 L 91.253906 272.042969 L 80.125 272.042969 C 74.445312 272.042969 68.878906 274.476562 64.589844 278.765625 L 17.0625 326.074219 C 11.46875 331.667969 11.46875 341.347656 17.0625 346.941406 L 26.800781 356.683594 C 32.394531 362.277344 42.074219 362.277344 47.667969 356.683594 L 94.960938 309.144531 C 99.25 304.855469 101.683594 299.289062 101.683594 293.609375 L 101.683594 282.476562 L 144.808594 239.34375 C 153.300781 230.851562 178.511719 221.257812 200.914062 215.230469 C 223.316406 209.199219 243.109375 205.953125 243.109375 205.953125 L 242.878906 205.023438 C 251.109375 204.039062 259.308594 202.242188 267.222656 199.460938 C 295.011719 189.664062 320.398438 171.3125 336.078125 155.632812 C 373.144531 119.371094 365.609375 66.355469 337.703125 37.597656 C 337.382812 37.28125 337.0625 37.191406 337.003906 37.136719 C 323.789062 24.207031 304.488281 14.46875 282.988281 12.554688 C 280.261719 12.324219 277.421875 12.121094 274.640625 12.089844 Z M 277.421875 26.933594 C 278.8125 26.960938 280.203125 27.046875 281.59375 27.164062 C 281.683594 27.164062 281.742188 27.164062 281.828125 27.164062 L 279.742188 29.25 Z M 267.222656 27.394531 L 274.410156 34.585938 L 264.902344 44.09375 L 252.152344 31.339844 C 257.164062 29.425781 262.179688 28.003906 267.222656 27.394531 Z M 290.867188 28.554688 C 295.910156 29.6875 300.664062 31.425781 305.242188 33.425781 L 294.578125 44.09375 L 285.074219 34.585938 Z M 244.734375 34.585938 L 259.570312 49.425781 L 250.066406 58.933594 L 233.371094 42.238281 C 237.082031 39.164062 240.847656 36.671875 244.734375 34.585938 Z M 312.429688 36.902344 C 316.515625 39.222656 320.285156 42.003906 323.558594 44.789062 L 309.417969 58.933594 L 299.910156 49.425781 Z M 279.742188 39.917969 L 289.246094 49.425781 L 279.742188 58.933594 L 270.234375 49.425781 Z M 227.808594 47.339844 L 244.734375 64.265625 L 235.226562 73.773438 L 218.765625 57.308594 C 221.867188 53.628906 224.910156 50.238281 227.808594 47.339844 Z M 328.890625 50.121094 C 331.875 53.511719 334.6875 56.992188 337.003906 61.019531 L 324.253906 73.773438 L 314.75 64.265625 Z M 264.902344 54.757812 L 274.410156 64.265625 L 264.902344 73.773438 L 255.398438 64.265625 Z M 294.578125 54.757812 L 304.085938 64.265625 L 294.578125 73.773438 L 285.074219 64.265625 Z M 214.128906 63.339844 L 229.894531 79.109375 L 220.390625 88.617188 L 206.246094 74.46875 C 208.855469 70.527344 211.433594 66.847656 214.128906 63.339844 Z M 340.484375 68.207031 C 342.484375 72.789062 344.105469 77.601562 345.121094 82.585938 L 339.09375 88.617188 L 329.585938 79.109375 Z M 250.066406 69.601562 L 259.570312 79.109375 L 250.066406 88.617188 L 240.558594 79.109375 Z M 279.742188 69.601562 L 289.246094 79.109375 L 279.742188 88.617188 L 270.234375 79.109375 Z M 309.417969 69.601562 L 318.921875 79.109375 L 309.417969 88.617188 L 299.910156 79.109375 Z M 202.074219 80.964844 L 215.054688 93.949219 L 205.550781 103.457031 L 195.117188 93.019531 C 197.203125 88.90625 199.695312 84.875 202.074219 80.964844 Z M 235.226562 84.441406 L 244.734375 93.949219 L 235.226562 103.457031 L 225.722656 93.949219 Z M 264.902344 84.441406 L 274.410156 93.949219 L 264.902344 103.457031 L 255.398438 93.949219 Z M 294.578125 84.441406 L 304.085938 93.949219 L 294.578125 103.457031 L 285.074219 93.949219 Z M 324.253906 84.441406 L 333.761719 93.949219 L 324.253906 103.457031 L 314.75 93.949219 Z M 346.28125 92.09375 C 346.367188 93.398438 346.511719 94.730469 346.511719 96.035156 L 344.425781 93.949219 Z M 220.390625 99.28125 L 229.894531 108.789062 L 220.390625 118.296875 L 210.882812 108.789062 Z M 250.066406 99.28125 L 259.570312 108.789062 L 250.066406 118.296875 L 240.558594 108.789062 Z M 279.742188 99.28125 L 289.246094 108.789062 L 279.742188 118.296875 L 270.234375 108.789062 Z M 309.417969 99.28125 L 318.921875 108.789062 L 309.417969 118.296875 L 299.910156 108.789062 Z M 339.09375 99.28125 L 345.816406 106.007812 C 345.089844 111.050781 343.84375 116.152344 341.875 121.082031 L 329.585938 108.789062 Z M 191.640625 100.210938 L 200.21875 108.789062 L 190.714844 118.296875 L 186.539062 114.125 C 186.917969 112.964844 187.0625 111.804688 187.46875 110.644531 C 188.683594 107.136719 190.105469 103.660156 191.640625 100.210938 Z M 205.550781 114.125 L 215.054688 123.632812 L 205.550781 133.140625 L 196.046875 123.632812 Z M 235.226562 114.125 L 244.734375 123.632812 L 235.226562 133.140625 L 225.722656 123.632812 Z M 264.902344 114.125 L 274.410156 123.632812 L 264.902344 133.140625 L 255.398438 123.632812 Z M 294.578125 114.125 L 304.085938 123.632812 L 294.578125 133.140625 L 285.074219 123.632812 Z M 324.253906 114.125 L 338.398438 128.269531 C 336.28125 132.152344 333.816406 135.980469 330.746094 139.632812 L 314.75 123.632812 Z M 184.222656 122.472656 L 185.378906 123.632812 L 183.292969 125.71875 C 183.527344 124.617188 183.960938 123.574219 184.222656 122.472656 Z M 190.714844 128.964844 L 200.21875 138.472656 L 183.527344 155.167969 C 182.078125 149.691406 181.410156 143.949219 181.671875 138.007812 Z M 220.390625 128.964844 L 229.894531 138.472656 L 220.390625 147.980469 L 210.882812 138.472656 Z M 250.066406 128.964844 L 259.570312 138.472656 L 250.066406 147.980469 L 240.558594 138.472656 Z M 279.742188 128.964844 L 289.246094 138.472656 L 279.742188 147.980469 L 270.234375 138.472656 Z M 309.417969 128.964844 L 325.644531 144.964844 L 325.644531 145.195312 C 322.746094 148.097656 319.355469 151.140625 315.675781 154.242188 L 299.910156 138.472656 Z M 205.550781 143.804688 L 215.054688 153.3125 L 193.957031 174.414062 C 190.800781 170.820312 188.191406 167.082031 186.308594 163.054688 Z M 235.226562 143.804688 L 244.734375 153.3125 L 235.226562 162.820312 L 225.722656 153.3125 Z M 264.902344 143.804688 L 274.410156 153.3125 L 264.902344 162.820312 L 255.398438 153.3125 Z M 294.578125 143.804688 L 309.648438 158.878906 C 306.140625 161.574219 302.460938 164.15625 298.519531 166.761719 L 285.074219 153.3125 Z M 220.390625 158.648438 L 229.894531 168.15625 L 210.882812 187.167969 C 206.796875 185.371094 202.941406 182.851562 199.292969 179.75 Z M 250.066406 158.648438 L 259.570312 168.15625 L 250.066406 177.660156 L 240.558594 168.15625 Z M 279.742188 158.648438 L 292.027344 170.9375 C 288.117188 173.3125 284.085938 175.808594 279.972656 177.894531 L 270.234375 168.15625 Z M 173.789062 171.167969 C 176.628906 176.9375 180.367188 182.386719 185.378906 187.402344 C 190.65625 192.675781 196.421875 196.5625 202.535156 199.460938 C 200.710938 199.921875 199.058594 200.359375 197.203125 200.851562 C 185.265625 204.070312 172.601562 207.75 161.269531 212.445312 C 165.820312 201.257812 169.324219 188.734375 172.398438 176.964844 C 172.917969 174.9375 173.296875 173.140625 173.789062 171.167969 Z M 235.226562 173.488281 L 244.734375 182.996094 L 236.617188 191.113281 C 230.472656 191.519531 224.417969 191.316406 218.765625 189.953125 Z M 264.902344 173.488281 L 272.785156 181.371094 C 269.335938 182.910156 265.859375 184.328125 262.351562 185.546875 C 261.191406 185.953125 260.035156 186.097656 258.875 186.472656 L 255.398438 182.996094 Z M 250.066406 188.328125 L 250.527344 188.792969 C 250.035156 188.910156 249.628906 189.140625 249.136719 189.257812 Z M 80.125 286.882812 L 86.847656 286.882812 L 86.847656 293.609375 C 86.847656 295.347656 86.179688 297.058594 84.527344 298.710938 L 37.234375 346.246094 L 37 346.246094 L 27.496094 336.738281 C 27.410156 336.828125 27.523438 336.539062 27.496094 336.507812 L 75.023438 289.203125 C 76.675781 287.550781 78.386719 286.882812 80.125 286.882812 Z M 80.125 286.882812 " fill-opacity="1" fill-rule="nonzero"/></g><g clip-path="url(#id2)"><path fill="#ffffff" d="M 294.78125 213.558594 C 271.171875 213.558594 252.03125 232.699219 252.03125 256.308594 C 252.03125 279.914062 271.171875 299.058594 294.78125 299.058594 C 318.390625 299.058594 337.53125 279.914062 337.53125 256.308594 C 337.53125 232.699219 318.390625 213.558594 294.78125 213.558594 Z M 294.78125 242.058594 C 290.84375 242.058594 287.65625 238.867188 287.65625 234.933594 C 287.65625 230.996094 290.84375 227.808594 294.78125 227.808594 C 298.71875 227.808594 301.90625 230.996094 301.90625 234.933594 C 301.90625 238.867188 298.71875 242.058594 294.78125 242.058594 Z M 273.40625 259.871094 C 269.46875 259.871094 266.28125 256.679688 266.28125 252.746094 C 266.28125 248.808594 269.46875 245.621094 273.40625 245.621094 C 277.34375 245.621094 280.53125 248.808594 280.53125 252.746094 C 280.53125 256.679688 277.34375 259.871094 273.40625 259.871094 Z M 273.40625 259.871094 " fill-opacity="1" fill-rule="nonzero"/></g></svg>