<svg xmlns="http://www.w3.org/2000/svg" xmlns:xlink="http://www.w3.org/1999/xlink" width="500" zoomAndPan="magnify" viewBox="0 0 375 374.999991" height="500" preserveAspectRatio="xMidYMid meet" version="1.0"><defs><clipPath id="id1"><path d="M 10 12 L 357 12 L 357 358.917969 L 10 358.917969 Z M 10 12 " clip-rule="nonzero"/></clipPath></defs><g clip-path="url(#id1)"><path fill="#ffffff" d="M 356.71875 128.777344 C 355.34375 103.988281 341.648438 78.421875 316.019531 52.789062 C 251.8125 -11.414062 201.449219 11.996094 170.503906 42.9375 C 112.359375 99.507812 137.019531 190.144531 97.6875 235.269531 L 77.261719 254.34375 C 74.527344 256.898438 74.378906 261.183594 76.933594 263.917969 C 79.492188 266.65625 83.777344 266.792969 86.507812 264.242188 L 102.238281 249.554688 L 119.25 266.566406 L 48.585938 342.230469 L 26.570312 320.214844 L 41.957031 305.84375 C 48.289062 299.476562 39.492188 290.0625 32.710938 295.945312 L 12.199219 315.097656 C 9.425781 317.585938 9.347656 322.257812 12.035156 324.839844 L 43.960938 356.765625 C 45.261719 358.0625 47.035156 358.78125 48.867188 358.75 C 50.703125 358.71875 52.449219 357.941406 53.703125 356.597656 L 133.535156 271.113281 C 152.617188 251.492188 193.597656 247.773438 225.902344 242.015625 C 231.148438 262.484375 249.753906 277.65625 271.835938 277.65625 C 306.761719 278.128906 330.339844 239.378906 314.054688 208.679688 C 318.246094 205.445312 322.203125 201.96875 325.871094 198.300781 C 347.6875 176.484375 358.066406 153.09375 356.71875 128.777344 Z M 271.832031 264.109375 C 253.160156 264.109375 237.96875 248.917969 237.96875 230.246094 C 239.671875 185.382812 304.003906 185.394531 305.699219 230.246094 C 305.699219 248.917969 290.507812 264.109375 271.832031 264.109375 Z M 306.207031 197.625 C 277.875 167.347656 225.835938 186.757812 224.453125 228.515625 C 218.820312 229.515625 213.191406 230.4375 207.707031 231.335938 C 177.445312 236.300781 148.722656 241.007812 128.917969 257.078125 L 111.722656 239.886719 C 149.328125 188.667969 127.730469 102.652344 180.082031 52.519531 C 199.058594 33.542969 218.976562 24.492188 239.277344 25.617188 C 279.359375 25.191406 343.617188 89.445312 343.191406 129.53125 C 344.320312 149.832031 335.269531 169.746094 316.289062 188.722656 C 313.15625 191.855469 309.78125 194.835938 306.207031 197.625 Z M 306.207031 197.625 " fill-opacity="1" fill-rule="nonzero"/></g><path fill="#ffffff" d="M 201.710938 206.621094 C 186.042969 196.449219 172.351562 182.761719 162.183594 167.09375 C 160.65625 164.75 157.851562 163.582031 155.113281 164.15625 C 152.375 164.734375 150.273438 166.929688 149.820312 169.691406 C 146.863281 187.707031 143.417969 206.679688 136.761719 223.230469 C 135.75 225.746094 136.339844 228.625 138.257812 230.546875 C 140.183594 232.476562 143.082031 233.046875 145.574219 232.039062 C 162.125 225.386719 181.101562 221.941406 199.117188 218.984375 C 201.875 218.53125 204.070312 216.425781 204.648438 213.691406 C 205.21875 210.953125 204.054688 208.144531 201.710938 206.621094 Z M 154.03125 214.769531 C 156.699219 205.890625 158.730469 196.734375 160.449219 187.621094 C 163.546875 191.402344 166.839844 195.039062 170.304688 198.5 C 173.765625 201.964844 177.402344 205.253906 181.183594 208.355469 C 172.070312 210.074219 162.910156 212.101562 154.03125 214.769531 Z M 154.03125 214.769531 " fill-opacity="1" fill-rule="nonzero"/><path fill="#ffffff" d="M 226.578125 56.019531 C 223.933594 53.375 219.644531 53.375 217 56.019531 C 212.722656 60.230469 215.867188 67.652344 221.792969 67.585938 C 227.714844 67.652344 230.855469 60.234375 226.582031 56.023438 Z M 226.578125 56.019531 " fill-opacity="1" fill-rule="nonzero"/><path fill="#ffffff" d="M 205.023438 77.570312 C 202.378906 74.925781 198.09375 74.925781 195.449219 77.570312 C 191.171875 81.78125 194.316406 89.203125 200.238281 89.136719 C 206.164062 89.203125 209.304688 81.785156 205.027344 77.574219 Z M 205.023438 77.570312 " fill-opacity="1" fill-rule="nonzero"/><path fill="#ffffff" d="M 174.132812 108.925781 C 176.890625 111.4375 181.175781 111.246094 183.699219 108.46875 C 186.214844 105.703125 186.011719 101.417969 183.242188 98.902344 L 183.238281 98.898438 C 180.472656 96.382812 176.191406 96.589844 173.675781 99.355469 C 171.15625 102.125 171.363281 106.410156 174.132812 108.925781 Z M 174.132812 108.925781 " fill-opacity="1" fill-rule="nonzero"/><path fill="#ffffff" d="M 269.679688 56.019531 C 267.035156 53.375 262.75 53.375 260.105469 56.019531 C 255.828125 60.234375 258.972656 67.652344 264.894531 67.585938 C 270.816406 67.652344 273.960938 60.234375 269.683594 56.023438 Z M 269.679688 56.019531 " fill-opacity="1" fill-rule="nonzero"/><path fill="#ffffff" d="M 248.128906 77.570312 C 245.484375 74.925781 241.199219 74.925781 238.550781 77.570312 C 234.277344 81.78125 237.417969 89.203125 243.34375 89.136719 C 249.265625 89.203125 252.410156 81.785156 248.132812 77.574219 Z M 248.128906 77.570312 " fill-opacity="1" fill-rule="nonzero"/><path fill="#ffffff" d="M 226.578125 99.121094 C 223.933594 96.476562 219.644531 96.480469 217 99.125 C 212.722656 103.335938 215.867188 110.753906 221.792969 110.6875 C 227.714844 110.753906 230.855469 103.335938 226.582031 99.125 Z M 226.578125 99.121094 " fill-opacity="1" fill-rule="nonzero"/><path fill="#ffffff" d="M 205.023438 120.671875 C 202.378906 118.027344 198.09375 118.03125 195.449219 120.675781 C 191.171875 124.886719 194.316406 132.304688 200.238281 132.238281 C 206.164062 132.304688 209.304688 124.886719 205.027344 120.675781 Z M 205.023438 120.671875 " fill-opacity="1" fill-rule="nonzero"/><path fill="#ffffff" d="M 174.132812 152.027344 C 176.890625 154.539062 181.175781 154.347656 183.699219 151.574219 C 186.214844 148.804688 186.011719 144.519531 183.242188 142.003906 L 183.238281 142 C 180.472656 139.484375 176.191406 139.691406 173.675781 142.460938 C 171.15625 145.226562 171.363281 149.511719 174.132812 152.027344 Z M 174.132812 152.027344 " fill-opacity="1" fill-rule="nonzero"/><path fill="#ffffff" d="M 291.234375 77.570312 C 288.589844 74.925781 284.300781 74.925781 281.65625 77.570312 C 277.378906 81.785156 280.523438 89.203125 286.445312 89.136719 C 292.371094 89.203125 295.511719 81.785156 291.238281 77.574219 Z M 291.234375 77.570312 " fill-opacity="1" fill-rule="nonzero"/><path fill="#ffffff" d="M 269.679688 99.121094 C 267.035156 96.476562 262.75 96.480469 260.105469 99.125 C 255.828125 103.335938 258.972656 110.753906 264.894531 110.6875 C 270.816406 110.753906 273.960938 103.335938 269.683594 99.125 Z M 269.679688 99.121094 " fill-opacity="1" fill-rule="nonzero"/><path fill="#ffffff" d="M 248.128906 120.671875 C 245.484375 118.027344 241.199219 118.03125 238.550781 120.675781 C 234.277344 124.886719 237.417969 132.304688 243.34375 132.238281 C 249.265625 132.304688 252.410156 124.886719 248.132812 120.675781 Z M 248.128906 120.671875 " fill-opacity="1" fill-rule="nonzero"/><path fill="#ffffff" d="M 226.578125 142.226562 C 223.933594 139.578125 219.644531 139.582031 217 142.226562 C 212.722656 146.4375 215.867188 153.855469 221.792969 153.789062 C 227.714844 153.855469 230.855469 146.4375 226.582031 142.226562 Z M 226.578125 142.226562 " fill-opacity="1" fill-rule="nonzero"/><path fill="#ffffff" d="M 205.023438 163.777344 C 202.378906 161.132812 198.09375 161.132812 195.449219 163.777344 C 191.171875 167.988281 194.316406 175.40625 200.238281 175.339844 C 206.164062 175.40625 209.304688 167.988281 205.027344 163.78125 Z M 205.023438 163.777344 " fill-opacity="1" fill-rule="nonzero"/><path fill="#ffffff" d="M 312.554688 98.902344 L 312.550781 98.898438 C 305.683594 93.109375 297.027344 102.648438 303.441406 108.925781 C 306.203125 111.4375 310.488281 111.246094 313.011719 108.46875 C 315.527344 105.703125 315.324219 101.417969 312.554688 98.902344 Z M 312.554688 98.902344 " fill-opacity="1" fill-rule="nonzero"/><path fill="#ffffff" d="M 291.234375 120.671875 C 288.589844 118.027344 284.300781 118.03125 281.65625 120.675781 C 277.378906 124.886719 280.523438 132.304688 286.445312 132.238281 C 292.371094 132.304688 295.511719 124.886719 291.238281 120.675781 Z M 291.234375 120.671875 " fill-opacity="1" fill-rule="nonzero"/><path fill="#ffffff" d="M 269.679688 142.226562 C 267.035156 139.578125 262.75 139.582031 260.105469 142.226562 C 255.828125 146.4375 258.972656 153.855469 264.894531 153.789062 C 270.816406 153.855469 273.960938 146.4375 269.683594 142.226562 Z M 269.679688 142.226562 " fill-opacity="1" fill-rule="nonzero"/><path fill="#ffffff" d="M 248.128906 163.777344 C 245.484375 161.132812 241.199219 161.132812 238.550781 163.777344 C 234.277344 167.988281 237.417969 175.40625 243.34375 175.339844 C 249.265625 175.40625 252.410156 167.988281 248.132812 163.78125 Z M 248.128906 163.777344 " fill-opacity="1" fill-rule="nonzero"/><path fill="#ffffff" d="M 226.800781 185.5625 C 220.511719 179.144531 210.988281 187.816406 216.777344 194.675781 C 219.300781 197.449219 223.585938 197.640625 226.347656 195.132812 C 229.113281 192.617188 229.320312 188.332031 226.800781 185.5625 Z M 226.800781 185.5625 " fill-opacity="1" fill-rule="nonzero"/><path fill="#ffffff" d="M 312.554688 142.007812 L 312.550781 142.003906 C 305.683594 136.210938 297.027344 145.753906 303.441406 152.027344 C 306.203125 154.539062 310.488281 154.347656 313.011719 151.574219 C 315.527344 148.804688 315.324219 144.519531 312.554688 142.007812 Z M 312.554688 142.007812 " fill-opacity="1" fill-rule="nonzero"/><path fill="#ffffff" d="M 291.234375 163.777344 C 288.589844 161.132812 284.300781 161.132812 281.65625 163.777344 C 277.378906 167.988281 280.523438 175.40625 286.445312 175.339844 C 292.371094 175.40625 295.511719 167.988281 291.238281 163.78125 Z M 291.234375 163.777344 " fill-opacity="1" fill-rule="nonzero"/><path fill="#ffffff" d="M 59.609375 286.863281 C 68.585938 286.53125 68.582031 273.648438 59.609375 273.320312 L 59.605469 273.320312 C 50.628906 273.652344 50.640625 286.535156 59.609375 286.863281 Z M 59.609375 286.863281 " fill-opacity="1" fill-rule="nonzero"/><path fill="#ffffff" d="M 290.402344 184.761719 C 290.355469 184.738281 290.308594 184.738281 290.261719 184.714844 C 290.226562 184.703125 290.191406 184.679688 290.160156 184.660156 C 276.832031 179.097656 258.992188 182.046875 246.871094 189.339844 C 234.796875 196.613281 227.023438 209.972656 225.105469 223.753906 C 223.066406 238.460938 228.46875 251.984375 237.933594 261.753906 C 238.042969 261.972656 238.21875 262.144531 238.429688 262.257812 C 248.859375 272.722656 264.007812 278.71875 279.539062 276.957031 C 289.113281 275.867188 298.507812 271.726562 305.925781 265.472656 C 306.371094 265.5 306.742188 265.136719 306.855469 264.6875 C 307.984375 263.6875 309.070312 262.636719 310.097656 261.53125 C 316.949219 254.164062 320.398438 244.371094 320.832031 234.417969 C 321.730469 213.863281 309.128906 193.175781 290.402344 184.761719 " fill-opacity="1" fill-rule="nonzero"/><path fill="#ffffff" d="M 304.292969 197.195312 C 318.984375 212.613281 324.28125 237.328125 311.996094 255.867188 C 310.246094 258.507812 308.167969 260.894531 305.847656 263.015625 C 301.511719 259.355469 299.683594 253.773438 298.351562 248.402344 C 297.082031 243.257812 296.066406 238.019531 294.941406 232.84375 C 292.160156 220.074219 294.171875 206.183594 304.292969 197.195312 " fill-opacity="1" fill-rule="nonzero"/><path fill="#ffffff" d="M 244.8125 211.667969 C 246.660156 217.425781 246.640625 223.730469 246.578125 229.722656 C 246.480469 240.324219 242.941406 250.222656 238.480469 259.6875 C 235.050781 256.003906 232.210938 251.800781 230.171875 247.242188 C 223.050781 231.257812 227.230469 211.820312 238.589844 198.957031 C 238.714844 198.816406 238.839844 198.6875 238.96875 198.542969 C 240.824219 202.96875 243.339844 207.074219 244.8125 211.667969 " fill-opacity="1" fill-rule="nonzero"/><path fill="#ffffff" d="M 290.457031 250.351562 C 292.761719 256.632812 295.164062 262.839844 300.371094 267.261719 C 291.257812 273.222656 279.871094 275.96875 269.261719 275.074219 C 260.398438 274.320312 251.789062 270.765625 244.65625 265.304688 C 247.972656 258.835938 251.097656 252.289062 253.039062 245.257812 C 254.859375 238.648438 254.886719 231.910156 254.359375 225.132812 C 253.539062 214.566406 251.660156 201.871094 244.292969 193.664062 C 249.257812 189.890625 254.988281 187.347656 261.179688 185.765625 C 270.25 183.429688 280.679688 182.941406 289.484375 186.570312 C 292.941406 188.136719 296.171875 190.132812 299.136719 192.480469 C 289.695312 200.5 287.019531 215.390625 286.886719 227.023438 C 286.792969 235.304688 287.589844 242.546875 290.457031 250.351562 " fill-opacity="1" fill-rule="nonzero"/><path fill="#000000" d="M 304.316406 264.339844 C 303.59375 264.945312 302.859375 265.519531 302.089844 266.070312 C 296.925781 261.820312 294.714844 255.898438 292.414062 249.808594 C 289.710938 242.644531 288.960938 235.898438 288.914062 228.285156 C 288.832031 216.742188 291.242188 201.71875 300.71875 193.792969 C 301.449219 194.421875 302.167969 195.078125 302.863281 195.75 C 292.609375 204.847656 290.453125 218.433594 292.617188 231.46875 C 293.675781 237.867188 295.207031 244.4375 296.847656 250.710938 C 298.191406 255.851562 300.339844 260.796875 304.316406 264.339844 " fill-opacity="1" fill-rule="nonzero"/><path fill="#000000" d="M 252.398438 225.988281 C 252.894531 232.335938 252.65625 238.507812 251.085938 244.714844 C 249.367188 251.488281 246.21875 257.820312 243.042969 264.007812 C 241.984375 263.128906 240.964844 262.210938 239.984375 261.246094 C 244.570312 251.582031 248.054688 241.71875 248.574219 230.933594 C 248.859375 225.140625 248.566406 219.207031 247.398438 213.53125 C 246.160156 207.550781 242.660156 202.566406 240.5 196.957031 C 241.214844 196.253906 241.953125 195.574219 242.710938 194.933594 C 249.988281 202.933594 251.597656 215.667969 252.398438 225.988281 " fill-opacity="1" fill-rule="nonzero"/><path fill="#ffffff" d="M 246.578125 229.722656 C 246.640625 223.730469 246.660156 217.425781 244.8125 211.667969 C 243.339844 207.074219 240.824219 202.96875 238.96875 198.542969 C 238.839844 198.6875 238.714844 198.816406 238.589844 198.957031 C 227.230469 211.820312 223.050781 231.257812 230.171875 247.242188 C 232.210938 251.800781 235.050781 256.003906 238.480469 259.6875 C 242.941406 250.222656 246.480469 240.324219 246.578125 229.722656 Z M 251.085938 244.714844 C 252.65625 238.507812 252.894531 232.335938 252.398438 225.988281 C 251.597656 215.667969 249.988281 202.933594 242.710938 194.933594 C 241.953125 195.574219 241.214844 196.253906 240.5 196.957031 C 242.660156 202.566406 246.160156 207.550781 247.398438 213.53125 C 248.566406 219.207031 248.859375 225.140625 248.574219 230.933594 C 248.054688 241.71875 244.570312 251.582031 239.984375 261.246094 C 240.964844 262.210938 241.984375 263.128906 243.042969 264.007812 C 246.21875 257.820312 249.367188 251.488281 251.085938 244.714844 Z M 300.371094 267.261719 C 295.164062 262.839844 292.761719 256.632812 290.457031 250.351562 C 287.589844 242.546875 286.792969 235.304688 286.886719 227.023438 C 287.019531 215.390625 289.695312 200.5 299.136719 192.480469 C 296.171875 190.132812 292.941406 188.136719 289.484375 186.570312 C 280.679688 182.941406 270.25 183.429688 261.179688 185.765625 C 254.988281 187.347656 249.257812 189.890625 244.292969 193.664062 C 251.660156 201.871094 253.539062 214.566406 254.359375 225.132812 C 254.886719 231.910156 254.859375 238.648438 253.039062 245.257812 C 251.097656 252.289062 247.972656 258.835938 244.65625 265.304688 C 251.789062 270.765625 260.398438 274.320312 269.261719 275.074219 C 279.871094 275.96875 291.257812 273.222656 300.371094 267.261719 Z M 302.089844 266.070312 C 302.859375 265.519531 303.59375 264.945312 304.316406 264.339844 C 300.339844 260.796875 298.191406 255.851562 296.847656 250.710938 C 295.207031 244.4375 293.675781 237.867188 292.617188 231.46875 C 290.453125 218.433594 292.609375 204.847656 302.863281 195.75 C 302.167969 195.078125 301.449219 194.421875 300.71875 193.792969 C 291.242188 201.71875 288.832031 216.742188 288.914062 228.285156 C 288.960938 235.898438 289.710938 242.644531 292.414062 249.808594 C 294.714844 255.898438 296.925781 261.820312 302.089844 266.070312 Z M 311.996094 255.867188 C 324.28125 237.328125 318.984375 212.613281 304.292969 197.195312 C 294.171875 206.183594 292.160156 220.074219 294.941406 232.84375 C 296.066406 238.019531 297.082031 243.257812 298.351562 248.402344 C 299.683594 253.773438 301.511719 259.355469 305.847656 263.015625 C 308.167969 260.894531 310.246094 258.507812 311.996094 255.867188 Z M 290.402344 184.761719 C 309.128906 193.175781 321.730469 213.863281 320.832031 234.417969 C 320.398438 244.371094 316.949219 254.164062 310.097656 261.53125 C 309.070312 262.636719 307.984375 263.6875 306.855469 264.6875 C 306.742188 265.136719 306.371094 265.503906 305.925781 265.472656 C 298.507812 271.726562 289.113281 275.867188 279.539062 276.957031 C 264.007812 278.71875 248.859375 272.722656 238.429688 262.257812 C 238.21875 262.144531 238.042969 261.972656 237.933594 261.753906 C 228.46875 251.984375 223.066406 238.460938 225.105469 223.753906 C 227.019531 209.972656 234.796875 196.613281 246.871094 189.339844 C 258.992188 182.046875 276.832031 179.097656 290.160156 184.660156 C 290.191406 184.679688 290.226562 184.703125 290.261719 184.714844 C 290.308594 184.738281 290.355469 184.738281 290.402344 184.761719 " fill-opacity="1" fill-rule="nonzero"/></svg>