<svg xmlns="http://www.w3.org/2000/svg" xmlns:xlink="http://www.w3.org/1999/xlink" width="377" zoomAndPan="magnify" viewBox="0 0 282.96 283.499996" height="377" preserveAspectRatio="xMidYMid meet" version="1.0"><defs><clipPath id="id1"><path d="M 0.230469 0 L 282 0 L 282 282.5 L 0.230469 282.5 Z M 0.230469 0 " clip-rule="nonzero"/></clipPath></defs><g clip-path="url(#id1)"><path fill="#ffffff" d="M 141.480469 0 C 64.148438 0 1.308594 62.84375 1.308594 140.171875 C 1.308594 168.140625 10.320312 193.75 24.390625 215.648438 L 0.296875 282.957031 L 75.269531 261.8125 C 95.148438 272.679688 117.21875 280.34375 141.480469 280.34375 C 218.8125 280.34375 281.652344 217.503906 281.652344 140.171875 C 281.652344 62.84375 218.8125 0 141.480469 0 Z M 141.480469 21.566406 C 207.101562 21.566406 260.085938 74.550781 260.085938 140.171875 C 260.085938 205.792969 207.101562 258.78125 141.480469 258.78125 C 118.988281 258.78125 98.179688 252.460938 80.15625 241.59375 L 76.195312 239.152344 L 34.664062 250.777344 L 48.144531 213.375 L 44.859375 208.828125 C 31.042969 189.367188 22.871094 165.78125 22.871094 140.171875 C 22.871094 74.550781 75.859375 21.566406 141.480469 21.566406 Z M 88.914062 64.695312 C 86.472656 64.695312 82.429688 65.707031 78.976562 69.75 C 75.605469 73.707031 66.003906 83.394531 66.003906 103.109375 C 66.003906 122.734375 79.3125 141.773438 81.164062 144.46875 C 83.019531 147.164062 107.363281 187.515625 144.597656 204.867188 C 153.441406 208.996094 160.347656 211.4375 165.742188 213.292969 C 174.667969 216.324219 182.757812 215.902344 189.160156 214.890625 C 196.320312 213.710938 211.144531 205.203125 214.261719 195.855469 C 217.292969 186.503906 217.378906 178.5 216.367188 176.816406 C 215.527344 175.132812 213 174.121094 209.292969 172.183594 C 205.585938 170.160156 187.304688 160.472656 183.9375 159.210938 C 180.566406 157.777344 178.039062 157.1875 175.511719 161.148438 C 173.070312 165.191406 165.992188 174.203125 163.804688 176.816406 C 161.613281 179.511719 159.507812 179.847656 155.800781 177.828125 C 152.011719 175.804688 140.046875 171.59375 125.894531 157.945312 C 114.859375 147.332031 107.363281 134.277344 105.257812 130.234375 C 103.066406 126.1875 105.003906 124.082031 106.859375 122.144531 C 108.542969 120.292969 110.566406 117.429688 112.417969 115.070312 C 114.269531 112.796875 114.859375 111.027344 116.125 108.414062 C 117.386719 105.71875 116.796875 103.359375 115.871094 101.421875 C 114.859375 99.402344 107.449219 79.691406 104.414062 71.6875 C 101.382812 63.9375 98.265625 64.949219 95.992188 64.863281 C 93.886719 64.695312 91.359375 64.695312 88.914062 64.695312 Z M 88.914062 64.695312 " fill-opacity="1" fill-rule="nonzero"/></g></svg>