<svg xmlns="http://www.w3.org/2000/svg" xmlns:xlink="http://www.w3.org/1999/xlink" width="377" zoomAndPan="magnify" viewBox="0 0 282.96 283.499996" height="377" preserveAspectRatio="xMidYMid meet" version="1.0"><defs><clipPath id="id1"><path d="M 0.230469 0 L 282.691406 0 L 282.691406 282.5 L 0.230469 282.5 Z M 0.230469 0 " clip-rule="nonzero"/></clipPath></defs><g clip-path="url(#id1)"><path fill="#ffffff" d="M 145.515625 192.910156 C 134.214844 192.910156 128.566406 193.714844 118.074219 188.066406 C 102.738281 179.992188 89.015625 163.851562 89.015625 143.671875 C 89.015625 133.179688 89.824219 127.53125 94.664062 117.84375 C 96.28125 114.613281 97.894531 112.195312 99.507812 109.773438 C 101.121094 107.351562 102.738281 104.929688 105.160156 103.316406 C 113.230469 96.050781 119.6875 92.015625 130.179688 90.402344 C 146.324219 86.363281 163.273438 90.402344 175.378906 100.894531 C 193.136719 117.035156 198.789062 140.445312 189.101562 163.042969 C 185.875 169.5 184.257812 171.117188 180.222656 175.957031 C 180.222656 176.765625 180.222656 176.765625 179.414062 177.574219 C 172.152344 184.835938 159.238281 192.910156 145.515625 192.910156 Z M 201.207031 61.34375 C 201.207031 68.609375 200.402344 71.835938 206.050781 77.484375 C 207.667969 78.292969 208.472656 79.101562 210.085938 79.90625 C 223.808594 85.558594 235.109375 76.679688 235.109375 66.1875 C 235.109375 60.535156 234.300781 56.5 230.265625 52.464844 C 229.460938 51.65625 227.039062 49.234375 226.230469 48.429688 C 219.773438 46.007812 212.507812 46.816406 206.859375 51.65625 C 204.4375 53.273438 201.207031 57.308594 201.207031 61.34375 Z M 74.488281 0 L 208.472656 0 C 228.652344 0 247.214844 8.070312 260.9375 21.792969 C 274.660156 35.515625 282.730469 54.078125 282.730469 74.257812 L 282.730469 208.242188 C 282.730469 228.421875 274.660156 246.988281 260.9375 260.707031 C 247.214844 274.429688 228.652344 282.5 208.472656 282.5 L 74.488281 282.5 C 54.308594 282.5 35.742188 274.429688 22.023438 260.707031 C 8.300781 246.988281 0.230469 228.421875 0.230469 208.242188 L 0.230469 74.257812 C 0.230469 54.078125 8.300781 35.515625 22.023438 21.792969 C 35.742188 8.070312 54.308594 0 74.488281 0 Z M 208.472656 18.5625 L 74.488281 18.5625 C 59.152344 18.5625 45.429688 25.023438 34.9375 34.707031 C 25.25 45.199219 18.792969 58.921875 18.792969 74.257812 L 18.792969 208.242188 C 18.792969 223.578125 25.25 237.300781 34.9375 247.792969 C 45.429688 257.480469 59.152344 263.9375 74.488281 263.9375 L 208.472656 263.9375 C 223.808594 263.9375 237.53125 257.480469 248.023438 247.792969 C 257.710938 237.300781 264.167969 223.578125 264.167969 208.242188 L 264.167969 74.257812 C 264.167969 58.921875 257.710938 45.199219 248.023438 34.707031 C 237.53125 25.023438 223.808594 18.5625 208.472656 18.5625 Z M 68.03125 135.601562 C 68.03125 143.671875 67.222656 150.9375 69.644531 159.007812 C 71.257812 168.695312 77.714844 179.992188 83.367188 188.066406 L 92.242188 196.945312 C 97.894531 200.980469 99.507812 203.402344 107.578125 207.4375 C 114.84375 210.664062 126.144531 214.703125 134.214844 214.703125 C 151.164062 214.703125 158.429688 215.507812 172.957031 208.242188 C 176.996094 206.628906 181.03125 204.207031 184.257812 201.785156 L 191.523438 196.136719 C 194.75 193.714844 193.945312 192.910156 195.558594 191.292969 L 199.59375 186.449219 C 200.402344 185.644531 201.207031 184.835938 202.015625 184.03125 C 202.824219 182.414062 204.4375 180.800781 205.246094 179.1875 C 210.894531 168.695312 214.929688 157.394531 214.929688 144.480469 C 214.929688 132.371094 214.125 121.878906 210.085938 113.808594 C 205.246094 102.507812 200.402344 94.4375 191.523438 86.363281 C 189.101562 84.75 187.488281 83.945312 185.875 82.328125 C 178.609375 75.871094 164.886719 70.222656 154.394531 68.609375 C 136.636719 65.378906 116.457031 68.609375 102.738281 78.292969 C 98.699219 80.714844 89.824219 87.171875 87.402344 90.402344 C 86.59375 92.015625 86.59375 92.015625 84.980469 92.820312 C 82.558594 95.242188 79.328125 100.894531 77.714844 104.121094 C 72.871094 112.195312 68.03125 124.300781 68.03125 135.601562 Z M 68.03125 135.601562 " fill-opacity="1" fill-rule="evenodd"/></g></svg>